PathFileType   4   (X/Y/Z)
DataRate	CameraRate	NumFrames	NumMarkers	Units	OrigDataRate	OrigDataStartFrame	OrigNumFrames
120.0	120.0	9	37	mm	120.0	47	184
Frame#	Time	midhip	hip_r	hip_l	knee_r	knee_l	ankle_r	ankle_l	midasis	asis_r	asis_l	psis_r	psis_l	epicondLat_r	epicondLat_l	epicondMed_r	epicondMed_l	malleolusLat_r	malleolusLat_l	malleolusMedv_r	malleolusMedv_l	neck	subclavicle_r	subclavicle_l	sternalnotch	xyphoidprocess	thighwand_r	thighwand_l	upperleg1_r	upperleg1_l	upperleg2_r	upperleg2_l	shankwand_r	shankwand_l	lowerleg1_r	lowerleg1_l	toe_r	toe_l
 	 	X1	Y1	Z1	X2	Y2	Z2	X3	Y3	Z3	X4	Y4	Z4	X5	Y5	Z5	X6	Y6	Z6	X7	Y7	Z7	X8	Y8	Z8	X9	Y9	Z9	X10	Y10	Z10	X11	Y11	Z11	X12	Y12	Z12	X13	Y13	Z13	X14	Y14	Z14	X15	Y15	Z15	X16	Y16	Z16	X17	Y17	Z17	X18	Y18	Z18	X19	Y19	Z19	X20	Y20	Z20	X21	Y21	Z21	X22	Y22	Z22	X23	Y23	Z23	X24	Y24	Z24	X25	Y25	Z25	X26	Y26	Z26	X27	Y27	Z27	X28	Y28	Z28	X29	Y29	Z29	X30	Y30	Z30	X31	Y31	Z31	X32	Y32	Z32	X33	Y33	Z33	X34	Y34	Z34	X35	Y35	Z35	X36	Y36	Z36	X37	Y37	Z37

	47	0.59167	-809.762	746.043	222.031	-820.749	745.344	293.109	-826.533	744.647	162.924	-668.385	430.196	310.900	-888.336	434.166	193.025	-616.892	93.627	325.052	-878.106	67.978	201.805	-752.865	813.341	224.506	-748.350	813.885	326.123	-757.380	812.797	122.888	-905.231	853.412	265.272	-911.796	853.513	210.525	-676.110	429.535	365.351	-901.029	431.561	140.088	-660.813	427.073	269.464	-883.029	416.078	233.978	-631.556	92.834	359.557	-896.838	66.690	169.922	-606.856	98.125	302.580	-872.500	78.026	230.236	-898.252	1219.196	197.482	-790.915	1163.882	250.275	-786.125	1166.493	174.677	-803.059	1163.484	210.098	-772.043	1082.276	211.669	-642.107	580.868	426.296	-719.665	528.789	140.721	-729.376	594.512	385.123	-781.506	599.634	119.391	-690.330	519.048	374.362	-810.130	516.484	129.611	-676.441	200.879	427.969	-910.235	194.618	90.136	-650.256	168.929	357.685	-905.021	157.048	165.022	-527.761	83.981	370.973	-779.963	47.163	183.766
	48	0.60000	-805.664	745.782	221.814	-816.312	745.241	293.150	-822.265	744.391	162.974	-663.433	430.106	308.977	-885.545	434.174	193.130	-603.928	94.444	323.762	-877.717	68.059	202.075	-748.445	813.083	224.376	-743.799	813.746	325.972	-753.092	812.420	122.781	-900.759	853.363	265.353	-907.513	853.460	210.611	-670.549	429.393	363.510	-898.273	431.625	140.198	-657.102	426.925	267.066	-880.738	416.394	234.039	-618.306	93.420	358.382	-896.440	66.880	170.184	-594.460	99.122	301.073	-872.069	77.896	230.570	-893.854	1218.974	197.072	-786.669	1163.668	250.102	-781.709	1166.225	174.588	-798.723	1163.246	209.934	-767.738	1082.029	211.631	-636.170	580.531	423.897	-716.525	528.129	140.765	-724.204	594.279	383.691	-777.726	599.242	119.462	-685.313	518.824	372.392	-807.063	516.132	129.700	-665.204	200.712	426.840	-908.956	194.760	90.355	-638.845	169.192	356.764	-904.124	157.101	165.235	-514.119	86.042	368.303	-779.776	46.884	184.082
	49	0.60833	-801.381	745.524	221.746	-811.819	745.117	293.196	-817.938	744.102	163.028	-658.631	429.892	307.097	-882.648	434.169	193.215	-591.434	95.274	322.216	-877.266	68.166	202.333	-743.964	812.792	224.247	-739.188	813.583	325.834	-748.739	812.000	122.660	-896.204	853.278	265.461	-903.068	853.375	210.714	-665.126	429.145	361.707	-895.419	431.680	140.291	-653.326	426.755	264.785	-877.189	415.870	234.326	-605.536	94.011	356.940	-895.950	67.096	170.415	-582.554	100.096	299.355	-871.801	77.742	231.004	-889.436	1218.707	196.707	-782.264	1163.442	250.019	-777.268	1165.936	174.579	-794.298	1162.984	209.881	-763.304	1081.773	211.661	-630.292	580.148	421.503	-713.269	527.469	140.761	-718.913	594.034	382.343	-774.814	598.742	119.423	-680.220	518.603	370.520	-803.878	515.780	129.760	-654.371	200.512	425.527	-907.486	194.878	90.554	-628.068	169.252	355.209	-903.068	157.214	165.430	-500.978	88.098	365.400	-779.570	46.619	184.405
	50	0.61667	-796.868	745.308	221.869	-807.259	744.969	293.242	-813.536	743.790	163.083	-653.966	429.562	305.256	-879.641	434.148	193.281	-579.431	96.105	320.417	-876.792	68.274	202.609	-739.412	812.478	224.122	-734.513	813.398	325.708	-744.311	811.558	122.537	-891.572	853.163	265.599	-898.464	853.246	210.835	-659.832	428.794	359.937	-892.460	431.724	140.366	-649.711	426.507	262.661	-871.409	413.552	234.774	-593.264	94.596	355.240	-895.401	67.314	170.643	-571.058	101.077	297.400	-871.708	77.776	231.442	-885.001	1218.383	196.334	-777.781	1163.226	249.918	-772.735	1165.763	174.525	-789.786	1162.771	209.792	-758.676	1081.603	211.554	-624.470	579.750	419.143	-709.875	526.816	140.716	-713.516	593.858	381.044	-773.611	598.116	119.461	-675.162	518.401	368.746	-800.622	515.433	129.802	-643.941	200.272	424.040	-905.840	194.972	90.741	-617.598	169.324	353.450	-901.889	157.409	165.582	-488.342	90.140	362.280	-779.312	46.341	184.754
	51	0.62500	-792.195	745.086	222.135	-802.620	744.815	293.308	-809.046	743.452	163.158	-649.415	429.129	303.450	-876.510	434.098	193.320	-567.909	96.934	318.384	-876.354	68.358	202.945	-734.790	812.161	224.013	-729.774	813.225	325.599	-739.805	811.096	122.427	-886.871	853.010	265.764	-893.725	853.076	210.973	-654.652	428.346	358.194	-889.378	431.746	140.413	-646.479	426.186	260.580	-868.598	413.723	234.812	-581.487	95.172	353.295	-894.847	67.507	170.910	-560.230	102.005	295.230	-871.517	77.809	231.864	-880.452	1218.071	196.024	-773.328	1162.973	249.880	-768.175	1165.523	174.500	-785.275	1162.517	209.739	-754.129	1081.365	211.536	-618.701	579.362	416.842	-706.319	526.179	140.637	-708.087	593.802	379.772	-769.758	597.600	119.360	-670.230	518.142	366.990	-797.221	515.154	129.755	-633.924	199.981	422.386	-904.041	195.041	90.926	-607.550	169.330	351.501	-900.633	157.557	165.744	-476.211	92.132	358.971	-779.005	46.016	185.157
	52	0.63333	-787.464	744.767	222.537	-797.902	744.655	293.405	-804.467	743.078	163.265	-644.957	428.609	301.674	-873.239	434.019	193.327	-556.856	97.751	316.137	-875.974	68.411	203.363	-730.102	811.840	223.925	-724.976	813.071	325.515	-735.227	810.609	122.334	-882.105	852.811	265.947	-888.870	852.850	211.132	-649.563	427.813	356.475	-886.152	431.747	140.428	-643.383	425.819	258.674	-865.602	413.750	234.853	-570.197	95.728	351.125	-894.316	67.666	171.237	-550.034	102.859	292.922	-871.153	77.711	232.357	-875.847	1217.711	195.784	-768.861	1162.677	249.966	-763.577	1164.962	174.556	-780.740	1162.096	209.792	-749.687	1080.916	211.920	-612.971	579.014	414.619	-702.598	525.565	140.541	-702.566	593.852	378.592	-765.899	597.130	119.361	-665.288	517.863	365.349	-793.791	514.836	129.756	-624.318	199.628	420.569	-902.113	195.084	91.112	-598.045	169.220	349.523	-899.411	157.546	165.983	-464.589	94.031	355.514	-778.701	45.618	185.648
	53	0.64167	-782.635	744.405	223.015	-793.118	744.462	293.531	-799.821	742.664	163.401	-640.573	428.014	299.917	-869.805	433.917	193.309	-546.256	98.530	313.703	-875.635	68.435	203.861	-725.358	811.495	223.865	-720.125	812.898	325.456	-730.591	810.091	122.273	-877.280	852.561	266.141	-883.927	852.563	211.305	-644.555	427.201	354.766	-882.755	431.728	140.415	-640.069	425.460	257.006	-862.513	413.879	235.217	-559.381	96.239	348.756	-893.798	67.794	171.632	-540.014	103.759	290.420	-870.742	77.579	232.910	-871.240	1217.271	195.588	-764.346	1162.288	250.018	-758.868	1164.435	174.585	-776.122	1161.638	209.799	-745.096	1080.454	212.154	-607.281	578.716	412.496	-698.750	524.964	140.460	-697.080	593.873	377.483	-761.904	596.679	119.372	-660.308	517.649	363.860	-790.350	514.346	129.911	-615.099	199.202	418.591	-900.073	195.104	91.305	-588.824	169.154	347.383	-898.067	157.534	166.252	-453.474	95.804	351.958	-778.425	45.136	186.241
	54	0.65000	-777.640	744.083	223.519	-788.277	744.220	293.694	-795.114	742.215	163.574	-636.259	427.347	298.174	-866.181	433.781	193.283	-536.098	99.249	311.113	-875.321	68.431	204.443	-720.569	811.120	223.850	-715.232	812.685	325.421	-725.906	809.555	122.279	-872.409	852.251	266.344	-878.928	852.209	211.484	-639.635	426.503	353.063	-879.160	431.677	140.392	-636.736	425.317	255.253	-859.075	413.897	235.487	-549.026	96.687	346.221	-893.285	67.893	172.101	-530.215	104.659	287.731	-870.343	77.435	233.494	-866.537	1216.807	195.424	-759.754	1161.874	250.043	-754.125	1164.024	174.665	-771.449	1161.220	209.822	-740.396	1080.047	212.239	-601.654	578.447	410.501	-694.834	524.352	140.431	-691.639	593.807	376.633	-757.764	596.223	119.372	-655.300	517.425	362.457	-786.613	513.891	130.025	-606.252	198.697	416.454	-897.921	195.112	91.509	-579.621	169.223	344.818	-896.571	157.609	166.516	-442.855	97.431	348.350	-778.163	44.568	186.932
	55	0.65833	-772.525	743.777	224.009	-783.386	743.920	293.880	-790.339	741.736	163.768	-632.002	426.616	296.444	-862.387	433.602	193.267	-526.360	99.901	308.396	-874.999	68.416	205.093	-715.735	810.719	223.884	-710.309	812.423	325.419	-721.161	809.015	122.348	-867.500	851.872	266.562	-873.897	851.792	211.683	-634.811	425.720	351.364	-875.387	431.578	140.379	-633.523	425.173	253.639	-855.522	413.714	235.354	-539.117	97.062	343.545	-892.754	67.978	172.634	-520.829	105.475	284.942	-869.937	77.292	234.116	-861.745	1216.282	195.273	-755.030	1161.458	250.152	-749.308	1163.528	174.801	-766.675	1160.755	209.928	-735.592	1079.598	212.471	-596.124	578.168	408.650	-690.870	523.724	140.465	-686.137	593.761	375.985	-753.519	595.745	119.402	-650.287	517.133	361.208	-782.642	513.524	129.994	-597.785	198.109	414.177	-895.677	195.103	91.748	-570.729	169.246	342.179	-894.970	157.726	166.798	-432.716	98.897	344.747	-777.888	43.925	187.711
